# xmcd
#
# Track frame offsets: 
#        150
#        18967
#        49725
#        67032
#        89837
#        107529
#        130662
#        150280
#        157877
#        183570
#        205970
#        216545
#        240175
#        271675
#        292390
#
# Disc length: 4295 seconds
#
# Revision: 1
# Processed by: cddbd v1.5.1PL0 Copyright (c) Steve Scherf et al.
# Submitted via: ExactAudioCopy v0.95a5
#
DISCID=d310c50f
DTITLE=Sting - Unplugged (Limited Edition)
DYEAR=2000
DGENRE=Blues
TTITLE0=If I Ever Loose My Faith In You
TTITLE1=Love Is Stronger Than Justice
TTITLE2=Fields of Gold
TTITLE3=Englishman In New York
TTITLE4=A Day In The Life
TTITLE5=Fortress Around Your Heart
TTITLE6=Medley: Nothing 'bout Me
TTITLE7=Medley: Every Breath You Take
TTITLE8=Jeremiah Blues
TTITLE9=Mad About You
TTITLE10=The Wind Cries Mary
TTITLE11=Message In A Bottle
TTITLE12=The Soul Cages
TTITLE13=Every Breath You Take
TTITLE14=Be Bop A Lula/I Miss You, Kate
EXTD=ID3G: 0
EXTT0=
EXTT1=
EXTT2=
EXTT3=
EXTT4=
EXTT5=
EXTT6=
EXTT7=
EXTT8=
EXTT9=
EXTT10=
EXTT11=
EXTT12=
EXTT13=
EXTT14=
PLAYORDER=
